<svg width="1838" height="44" viewBox="0 0 1838 44" fill="none" xmlns="http://www.w3.org/2000/svg">
    <rect y="9" width="579" height="19" fill="#FF3A3A" fill-opacity="0.2" />
    <rect x="580.5" y="1.5" width="202" height="41" stroke="#FF3A3A" stroke-opacity="0.3"
        stroke-width="3" stroke-dasharray="3 6" />
    <rect x="883" y="9" width="164" height="19" fill="#FF3A3A" fill-opacity="0.1" />
    <rect x="884.5" y="10.5" width="161" height="16" stroke="#FF3A3A" stroke-opacity="0.3"
        stroke-width="3" stroke-dasharray="3 6" />
    <path d="M784 9H883V28H784V9Z" fill="#FF3A3A" fill-opacity="0.2" />
    <path d="M1047 9H1838V28H1047V9Z" fill="#FF3A3A" fill-opacity="0.2" />
    <path
        d="M617.448 32L613.164 12.736H618.008L620.78 26.484H621.004L624.14 12.736H629.18L632.372 26.484H632.596L635.144 12.736H639.988L635.704 32H629.6L626.66 19.848H626.464L623.552 32H617.448ZM642.404 32V12.736H655.9V16.488H647.276V20.436H654.584V24.132H647.276V28.248H655.9V32H642.404ZM659.384 32V12.736H664.256V28.08H671.76V32H659.384ZM682.124 32.224C680.668 32.224 679.455 32.1307 678.484 31.944C677.514 31.7387 676.72 31.412 676.104 30.964C675.507 30.516 675.05 29.9187 674.732 29.172C674.434 28.4253 674.228 27.492 674.116 26.372C674.004 25.252 673.948 23.9173 673.948 22.368C673.948 20.8187 674.004 19.484 674.116 18.364C674.228 17.244 674.434 16.3107 674.732 15.564C675.05 14.8173 675.507 14.22 676.104 13.772C676.72 13.324 677.514 13.0067 678.484 12.82C679.455 12.6147 680.668 12.512 682.124 12.512C682.684 12.512 683.263 12.5307 683.86 12.568C684.458 12.6053 685.036 12.6613 685.596 12.736C686.156 12.8107 686.632 12.904 687.024 13.016V16.516C686.446 16.46 685.914 16.4133 685.428 16.376C684.962 16.32 684.551 16.292 684.196 16.292C683.842 16.2733 683.543 16.264 683.3 16.264C682.442 16.264 681.732 16.3013 681.172 16.376C680.631 16.432 680.202 16.572 679.884 16.796C679.567 17.02 679.334 17.356 679.184 17.804C679.035 18.2333 678.932 18.8213 678.876 19.568C678.839 20.296 678.82 21.2293 678.82 22.368C678.82 23.488 678.839 24.4213 678.876 25.168C678.932 25.9147 679.035 26.512 679.184 26.96C679.334 27.408 679.567 27.744 679.884 27.968C680.202 28.1733 680.631 28.3133 681.172 28.388C681.732 28.444 682.442 28.472 683.3 28.472C683.879 28.472 684.532 28.4533 685.26 28.416C685.988 28.36 686.614 28.2947 687.136 28.22V31.804C686.726 31.8787 686.231 31.944 685.652 32C685.074 32.0747 684.476 32.1307 683.86 32.168C683.263 32.2053 682.684 32.224 682.124 32.224ZM698.205 32.224C696.581 32.224 695.246 32.1307 694.201 31.944C693.174 31.7387 692.372 31.4213 691.793 30.992C691.214 30.544 690.785 29.9467 690.505 29.2C690.244 28.4347 690.076 27.492 690.001 26.372C689.945 25.252 689.917 23.9173 689.917 22.368C689.917 20.8187 689.945 19.484 690.001 18.364C690.076 17.244 690.244 16.3107 690.505 15.564C690.785 14.7987 691.214 14.2013 691.793 13.772C692.372 13.324 693.174 13.0067 694.201 12.82C695.246 12.6147 696.581 12.512 698.205 12.512C699.81 12.512 701.126 12.6147 702.153 12.82C703.198 13.0067 704.02 13.324 704.617 13.772C705.214 14.2013 705.644 14.7987 705.905 15.564C706.166 16.3107 706.334 17.244 706.409 18.364C706.484 19.484 706.521 20.8187 706.521 22.368C706.521 23.9173 706.484 25.252 706.409 26.372C706.334 27.492 706.166 28.4347 705.905 29.2C705.644 29.9467 705.214 30.544 704.617 30.992C704.02 31.4213 703.198 31.7387 702.153 31.944C701.126 32.1307 699.81 32.224 698.205 32.224ZM698.205 28.472C698.877 28.472 699.418 28.4533 699.829 28.416C700.258 28.36 700.594 28.2387 700.837 28.052C701.08 27.8467 701.257 27.5293 701.369 27.1C701.481 26.6707 701.546 26.0733 701.565 25.308C701.602 24.5427 701.621 23.5627 701.621 22.368C701.621 21.1733 701.602 20.1933 701.565 19.428C701.546 18.6627 701.481 18.0653 701.369 17.636C701.257 17.2067 701.08 16.8987 700.837 16.712C700.594 16.5067 700.258 16.3853 699.829 16.348C699.418 16.292 698.877 16.264 698.205 16.264C697.552 16.264 697.01 16.292 696.581 16.348C696.152 16.3853 695.816 16.5067 695.573 16.712C695.33 16.8987 695.153 17.2067 695.041 17.636C694.929 18.0653 694.854 18.6627 694.817 19.428C694.798 20.1933 694.789 21.1733 694.789 22.368C694.789 23.5627 694.798 24.5427 694.817 25.308C694.854 26.0733 694.929 26.6707 695.041 27.1C695.153 27.5293 695.33 27.8467 695.573 28.052C695.816 28.2387 696.152 28.36 696.581 28.416C697.01 28.4533 697.552 28.472 698.205 28.472ZM710.052 32V12.736H716.744L720.58 24.16H720.776L724.612 12.736H731.276V32H726.6V19.484H726.404L722.232 32H718.956L714.812 19.484H714.588V32H710.052ZM735.263 32V12.736H748.759V16.488H740.135V20.436H747.443V24.132H740.135V28.248H748.759V32H735.263Z"
        fill="#FF3A3A" fill-opacity="0.3" />
</svg>
    